<svg width="1271" height="645" xmlns="http://www.w3.org/2000/svg" xmlns:xlink="http://www.w3.org/1999/xlink" overflow="hidden"><defs><clipPath id="clip0"><rect x="-1" y="30" width="1271" height="645"/></clipPath></defs><g clip-path="url(#clip0)" transform="translate(1 -30)"><rect x="0" y="253" width="244" height="124" fill="#FFC000"/><rect x="249" y="30" width="467" height="96" fill="#7EE787"/><rect x="716" y="263" width="244" height="124" fill="#95D6FF"/><rect x="668" y="423" width="340" height="67" fill="#95D6FF"/><rect x="450" y="538" width="244" height="82" fill="#95D6FF"/><rect x="716" y="538" width="244" height="82" fill="#95D6FF"/><rect x="981" y="538" width="244" height="82" fill="#95D6FF"/><text fill="#767171" font-family="Calibri,Calibri_MSFontService,sans-serif" font-weight="400" font-size="24" transform="translate(433.075 86)">Your<tspan font-size="24" x="49.04" y="0">App</tspan></text><path d="M717.494 125.611 835.048 256.975 833.061 258.753 715.506 127.389ZM836.146 254.203 838.5 262.832 830.184 259.538Z" fill="#808080"/><path d="M0.941714-0.943903 122.969 120.8 121.085 122.688-0.941714 0.943903ZM123.908 117.971 126.747 126.453 118.258 123.634Z" fill="#808080" transform="matrix(-1 0 0 1 249.247 126.5)"/><text fill="#767171" font-family="Arial,Arial_MSFontService,sans-serif" font-weight="400" font-size="24" transform="translate(774.05 169)">•<tspan font-family="Calibri,Calibri_MSFontService,sans-serif" font-size="24" x="30" y="0">Obtain</tspan><tspan font-family="Calibri,Calibri_MSFontService,sans-serif" font-size="24" x="101.267" y="0">opus</tspan><tspan font-family="Calibri,Calibri_MSFontService,sans-serif" font-size="24" x="154.1" y="0">DynamicLibrary</tspan><tspan fill="#808080" font-size="24" x="-542" y="0">•</tspan><tspan fill="#808080" font-family="Calibri,Calibri_MSFontService,sans-serif" font-size="24" x="-512" y="0">Pass </tspan><tspan fill="#808080" font-family="Calibri,Calibri_MSFontService,sans-serif" font-size="24" x="-464.513" y="0">opus</tspan><tspan fill="#808080" font-family="Calibri,Calibri_MSFontService,sans-serif" font-size="24" x="-411.68" y="0">DynamicLibrary</tspan><tspan fill="#808080" font-size="24" x="-542" y="29">•</tspan><tspan fill="#808080" font-family="Calibri,Calibri_MSFontService,sans-serif" font-size="24" x="-512" y="29">Use </tspan><tspan fill="#808080" font-family="Calibri,Calibri_MSFontService,sans-serif" font-size="24" x="-469.833" y="29">opus_dart</tspan><tspan font-family="Calibri,Calibri_MSFontService,sans-serif" font-size="24" x="-713.19" y="153">opus_dart</tspan><tspan font-family="Calibri,Calibri_MSFontService,sans-serif" font-size="24" x="3.33441" y="163">opus_flutter</tspan><tspan font-family="Calibri,Calibri_MSFontService,sans-serif" font-size="24" x="-94.162" y="295">opus_flutter_platform_interface</tspan><tspan font-family="Calibri,Calibri_MSFontService,sans-serif" font-size="24" x="-16.4152" y="418">opus_flutter_ios</tspan><tspan font-family="Calibri,Calibri_MSFontService,sans-serif" font-size="24" x="218.928" y="418">opus_flutter_windows</tspan><tspan font-family="Calibri,Calibri_MSFontService,sans-serif" font-size="24" x="-309.299" y="418">opus_flutter_android</tspan></text><rect x="401" y="216" width="867" height="456" stroke="#808080" stroke-width="3.66667" stroke-miterlimit="8" stroke-dasharray="14.6667 11" fill="none"/><text fill="#767171" font-family="Calibri,Calibri_MSFontService,sans-serif" font-weight="400" font-size="24" transform="translate(1021.87 245)">Federal <tspan font-size="24" x="77.6534" y="0">plugin</tspan><tspan font-size="24" x="143.487" y="0">structure</tspan></text><path d="M839.833 387.5 839.834 417.523 837.167 417.523 837.167 387.5ZM842.5 416.189 838.5 424.189 834.5 416.189Z" fill="#808080"/><path d="M839.833 490.5 839.833 531.772 837.167 531.772 837.167 490.5ZM842.5 530.438 838.5 538.438 834.5 530.438Z" fill="#808080"/><path d="M1009.37 456.488 1099.24 533.637 1097.5 535.661 1007.63 458.512ZM1099.96 530.746 1103.43 538.992 1094.75 536.816Z" fill="#808080"/><path d="M0.862654-1.01666 91.8197 76.1617 90.0944 78.195-0.862654 1.01666ZM92.5284 73.2657 96.0404 81.4917 87.3525 79.3657Z" fill="#808080" transform="matrix(-1 0 0 1 668.54 457.5)"/></g></svg>